<?xml version="1.0" standalone="no"?><!DOCTYPE svg PUBLIC "-//W3C//DTD SVG 1.1//EN" "http://www.w3.org/Graphics/SVG/1.1/DTD/svg11.dtd"><svg t="1615775286949" class="icon" viewBox="0 0 1024 1024" version="1.1" xmlns="http://www.w3.org/2000/svg" p-id="1553" xmlns:xlink="http://www.w3.org/1999/xlink" width="200" height="200"><defs><style type="text/css"></style></defs><path d="M870 413.6C853.6 227.1 699.7 82 513 82S170.3 227.1 156 413.6c-43.1 18.6-73.9 62.2-73.9 114v82.9c0 68.4 55.4 124.3 123.1 124.3h50.7c17.3 0 31.3-14.2 31.3-31.7V434.9c0-17.5-14-31.7-31.3-31.7h-38.4c20.5-147.1 143.6-259 295.5-259 151.8 0 274.9 111.9 295.5 259H770c-17.3 0-31.4 14.2-31.4 31.7v268.2c0 17.5 14 31.7 31.4 31.7h11.7c-12.3 74.6-67.7 116-176.5 126.4-8.2-14.5-24.6-22.8-43.1-22.8h-60.7c-28.4 0-52 22.9-52.1 51.6-0.1 29.1 22.5 52 51.3 52h61.5c16.4 0 28.7-6.2 39-18.6C746.9 913 831 848.7 843.3 730.6c55.4-10.4 98.5-62.2 98.5-122.3v-82.9c2.1-49.7-28.7-93.2-71.8-111.8z m-644.3 66.1v178.5c0 7.9-6.4 14.4-14.2 14.4h-6.3c-34 0-61.5-27.8-61.5-62.2v-82.9c0-34.3 27.5-62.2 61.5-62.2h6.3c7.9 0.1 14.2 6.5 14.2 14.4z m656.6 130.7c0 34.3-27.6 62.2-61.6 62.2h-6.3c-7.8 0-14.2-6.4-14.2-14.4V479.7c0-7.9 6.4-14.4 14.2-14.4h6.3c34 0 61.6 27.8 61.6 62.2v82.9z m0 0" fill="#ffffff" p-id="1554"></path></svg>