<?xml version="1.0" standalone="no"?><!DOCTYPE svg PUBLIC "-//W3C//DTD SVG 1.1//EN" "http://www.w3.org/Graphics/SVG/1.1/DTD/svg11.dtd"><svg t="1615775236400" class="icon" viewBox="0 0 1024 1024" version="1.1" xmlns="http://www.w3.org/2000/svg" p-id="795" xmlns:xlink="http://www.w3.org/1999/xlink" width="200" height="200"><defs><style type="text/css"></style></defs><path d="M790.1 886.6H236c-41.4 0-80.4-14.4-109.9-40.6-30.2-26.8-46.9-62.8-46.9-101.1V338.6c0.1-38.4 16.8-74.3 47-101.1 29.5-26.2 68.5-40.6 109.9-40.6h109.4L318 149.7c-6.6-12-8.5-25.9-5.3-39.2 3.2-13.3 11.2-24.9 22.5-32.5l0.9-0.6 0.9-0.5c25.5-13.8 57.8-4.4 71.9 21.1l57.2 98.7 109.9 0.1 64-109.6h1.8c16.2-16.8 42.3-21.5 63.7-9.9l1 0.6 0.9 0.7c23.3 16 30.6 46.7 17 71.4l-0.3 0.5-27.2 46.6h109.7c44.3 0 86.6 17 116.3 46.7 26.1 26.1 40.4 59.9 40.3 95.2v74h2.2v330.1c0.6 39.1-12.2 73-36.9 98.2-28.4 28.9-71.7 44.7-121.8 44.7h-16.6v0.6z m-554-645.7c-62.1 0-112.7 43.9-112.8 97.8V745c0 53.9 50.6 97.7 112.7 97.7h524.7l0.3-0.6h45.9c38.3 0 70.4-11.2 90.5-31.6 16.6-16.8 24.7-39.3 24.3-66.8V457.1h-2.2V338.7c0-23.5-9.7-46.3-27.4-64-21.5-21.5-52.5-33.8-85.2-33.8H236.1z m223.6 463.7c-14.4 0-28.4-7.4-36.2-20.6-3.7-6.3-5.7-13.6-5.7-21V453.8c0.3-22.8 19-41.3 41.6-41.3h0.2c7.3 0 14.5 2 20.8 5.6l0.3 0.2 172.4 104.2c9.5 5.4 16.5 14.6 19.3 25.2 2.9 10.6 1.3 22.2-4.3 31.8-3.7 6.2-8.9 11.4-15 15.1L480.4 699c-6.5 3.8-13.7 5.6-20.7 5.6z m2.1-246.4v200.6l166-100.3-166-100.3z" p-id="796" fill="#ffffff"></path></svg>