<?xml version="1.0" encoding="UTF-8"?>
<svg width="250px" height="130px" viewBox="0 0 250 130" version="1.1" xmlns="http://www.w3.org/2000/svg" xmlns:xlink="http://www.w3.org/1999/xlink">
    <!-- Generator: Sketch 63.1 (92452) - https://sketch.com -->
    <title>没有新消息</title>
    <desc>Created with Sketch.</desc>
    <defs>
        <linearGradient x1="50%" y1="0%" x2="50%" y2="100%" id="linearGradient-1">
            <stop stop-color="#C1DBFE" offset="0%"></stop>
            <stop stop-color="#FFFFFF" offset="100%"></stop>
        </linearGradient>
        <linearGradient x1="50%" y1="122.692903%" x2="51.934011%" y2="11.5342171%" id="linearGradient-2">
            <stop stop-color="#A5BEFC" offset="0%"></stop>
            <stop stop-color="#6697F6" offset="100%"></stop>
        </linearGradient>
        <linearGradient x1="50%" y1="0%" x2="50%" y2="100%" id="linearGradient-3">
            <stop stop-color="#A5BEFC" offset="0%"></stop>
            <stop stop-color="#6697F6" offset="100%"></stop>
        </linearGradient>
        <linearGradient x1="100%" y1="87.309416%" x2="-25.9227814%" y2="-5.11744566%" id="linearGradient-4">
            <stop stop-color="#A5BEFC" offset="0%"></stop>
            <stop stop-color="#6697F6" offset="100%"></stop>
        </linearGradient>
        <linearGradient x1="13.4380152%" y1="50%" x2="121.642544%" y2="41.7154768%" id="linearGradient-5">
            <stop stop-color="#A5BEFC" offset="0%"></stop>
            <stop stop-color="#6697F6" offset="100%"></stop>
        </linearGradient>
        <linearGradient x1="74.65355%" y1="92.5319313%" x2="36.8761987%" y2="39.1979285%" id="linearGradient-6">
            <stop stop-color="#A5BEFC" offset="0%"></stop>
            <stop stop-color="#6697F6" offset="100%"></stop>
        </linearGradient>
        <linearGradient x1="-31.9615303%" y1="34.8484055%" x2="50%" y2="58.5799696%" id="linearGradient-7">
            <stop stop-color="#3777E6" offset="0%"></stop>
            <stop stop-color="#6EA4FF" offset="100%"></stop>
        </linearGradient>
    </defs>
    <g id="2.0" stroke="none" stroke-width="1" fill="none" fill-rule="evenodd">
        <g id="空页面" transform="translate(-57.000000, -499.000000)">
            <g id="没有新消息" transform="translate(55.000000, 479.000000)">
                <rect id="矩形备份-3" x="0" y="0" width="253" height="150"></rect>
                <path d="M251.283495,150 C221.862798,113.493778 174.799938,92 124.264363,92 C75.2903413,92 31.4394504,113.93473 2,148.515879 C2,148.515879 251.283495,150 251.283495,150 Z" id="椭圆形" fill="url(#linearGradient-1)"></path>
                <g id="3.通用组件/彩色版/盆栽03备份-7" transform="translate(159.750000, 98.000000)">
                    <g id="分组" transform="translate(0.250000, 0.000000)">
                        <g transform="translate(3.760000, 0.000000)" fill="#BAE637" id="Fill-1">
                            <path d="M2.99249766,12.1785752 L0.00120155844,12.1785752 L0.00120155844,1.5504538 C0.00120155844,0.704502313 0.667318442,0.0187114813 1.48903013,0.0187114813 L1.50464571,0.0187114813 C2.3263574,0.0187114813 2.99249766,0.704502313 2.99249766,1.5504538 L2.99249766,12.1785752 Z"></path>
                        </g>
                        <path d="M8.24,14.7800587 L5.24,14.7800587 L5.24,9.23027668 C5.24,8.40666502 5.89142187,7.73900293 6.695,7.73900293 L6.78502344,7.73900293 C7.58857812,7.73900293 8.24,8.40666502 8.24,9.23027668 L8.24,14.7800587 Z" id="Fill-3" fill="#389E0D"></path>
                        <path d="M4.2,12.1730205 L1.18,12.1730205 L1.18,6.13903453 C1.18,5.310763 1.83312921,4.63929619 2.63878083,4.63929619 L2.74121917,4.63929619 C3.54687079,4.63929619 4.2,5.310763 4.2,6.13903453 L4.2,12.1730205 Z" id="Fill-5" fill="#7CB305"></path>
                        <g transform="translate(0.000000, 11.803519)" fill="#3B68B8" id="Fill-7">
                            <path d="M8.41844772,9.1844618 L0.562255965,9.1844618 C0.251726681,9.1844618 0,8.92611882 0,8.6074277 L0,0.592953026 C0,0.274261903 0.251726681,0.0159189282 0.562255965,0.0159189282 L8.41844772,0.0159189282 C8.72897701,0.0159189282 8.98070369,0.274261903 8.98070369,0.592953026 L8.98070369,8.6074277 C8.98070369,8.92611882 8.72897701,9.1844618 8.41844772,9.1844618"></path>
                        </g>
                    </g>
                </g>
                <g id="3.通用组件/彩色版/盆栽03备份-8" transform="translate(184.000000, 82.000000)">
                    <g id="分组" transform="translate(0.968750, 0.179688)">
                        <g transform="translate(5.875000, 0.000000)" fill="#BAE637" id="Fill-1">
                            <path d="M4.6757776,18.3494157 L0.00187743506,18.3494157 L0.00187743506,2.3360632 C0.00187743506,1.06147112 1.04268506,0.0281925221 2.32660958,0.0281925221 L2.35100893,0.0281925221 C3.63493344,0.0281925221 4.6757776,1.06147112 4.6757776,2.3360632 L4.6757776,18.3494157 Z"></path>
                        </g>
                        <path d="M12.875,22.2690616 L8.1875,22.2690616 L8.1875,13.9072249 C8.1875,12.6662922 9.20534668,11.6603281 10.4609375,11.6603281 L10.6015991,11.6603281 C11.8571533,11.6603281 12.875,12.6662922 12.875,13.9072249 L12.875,22.2690616 Z" id="Fill-3" fill="#389E0D"></path>
                        <path d="M6.5625,18.3410466 L1.84375,18.3410466 L1.84375,9.2496614 C1.84375,8.00170765 2.86426439,6.990011 4.12309505,6.990011 L4.28315495,6.990011 C5.54198561,6.990011 6.5625,8.00170765 6.5625,9.2496614 L6.5625,18.3410466 Z" id="Fill-5" fill="#7CB305"></path>
                        <g transform="translate(0.000000, 17.784320)" fill="#3B68B8" id="Fill-7">
                            <path d="M13.1538246,13.8381958 L0.878524946,13.8381958 C0.393322939,13.8381958 0,13.4489514 0,12.9687806 L0,0.893400207 C0,0.413229429 0.393322939,0.0239849922 0.878524946,0.0239849922 L13.1538246,0.0239849922 C13.6390266,0.0239849922 14.0323495,0.413229429 14.0323495,0.893400207 L14.0323495,12.9687806 C14.0323495,13.4489514 13.6390266,13.8381958 13.1538246,13.8381958"></path>
                        </g>
                    </g>
                </g>
                <g id="编组-4" transform="translate(83.000000, 20.000000)">
                    <polygon id="路径-50" fill="url(#linearGradient-2)" points="28.4721822 55.9836518 28.4721822 101.474053 37.9769518 104.311463 37.9769518 61.6182509"></polygon>
                    <polygon id="路径-51" fill="url(#linearGradient-3)" points="37.9769518 104.311463 50.271118 99.2731265 50.271118 65.1020834 37.9769518 61.6182509"></polygon>
                    <polygon id="路径-47" fill="url(#linearGradient-4)" points="1.8189894e-12 21.6767895 1.8189894e-12 51.8134587 50.271118 65.1020834 50.271118 34.5633195"></polygon>
                    <path d="M3.63797881e-12,21.6767895 C0.790569473,16.0771803 3.15856339,10.4856192 7.10398176,4.90210626 C11.0494001,-0.681406721 19.7611414,-1.49519182 33.2392056,2.46075096 L73.5173892,10.8383947 L50.271118,34.5633195 L3.63797881e-12,21.6767895 Z" id="路径-48" fill="url(#linearGradient-5)"></path>
                    <path d="M73.5607742,11.8374532 C66.8259404,12.1299188 61.5828547,14.13608 57.8676945,17.9277374 C54.1375592,21.7346782 51.9636115,27.3088807 51.271118,34.6103965 L51.271118,64.0518914 L87.3883911,62.2824116 L87.3883911,26.8626173 C86.9155042,21.6461701 85.5485021,17.7504841 83.197046,15.2237859 C80.9026944,12.7584477 77.6770752,11.6586994 73.5607742,11.8374532 Z" id="路径-49" stroke="#BCD0F1" stroke-width="2" fill="url(#linearGradient-6)"></path>
                    <polygon id="路径-52" fill="url(#linearGradient-7)" opacity="0.411109561" points="86.0377748 61.6182509 52.2340569 48.9821316 52.2340569 62.985172"></polygon>
                </g>
                <path d="M74.0315674,61.1473863 C69.7086088,67.2133088 67.5471295,71.8418576 67.5471295,75.0330328 C67.5471295,79.8197954 68.2270115,82.1045383 71.3071157,82.1045383 C74.3872199,82.1045383 76.71238,76.616177 70.7854488,75.7565805 C66.8341613,75.1835162 64.9189196,80.6752347 65.0397238,92.2317359" id="路径-40" stroke="#B7DCFC" stroke-linecap="round" stroke-linejoin="round" stroke-dasharray="2" transform="translate(69.745619, 76.689561) rotate(-62.000000) translate(-69.745619, -76.689561) "></path>
            </g>
        </g>
    </g>
</svg>