<?xml version="1.0" standalone="no"?><!DOCTYPE svg PUBLIC "-//W3C//DTD SVG 1.1//EN" "http://www.w3.org/Graphics/SVG/1.1/DTD/svg11.dtd"><svg t="1615882009868" class="icon" viewBox="0 0 1024 1024" version="1.1" xmlns="http://www.w3.org/2000/svg" p-id="12195" xmlns:xlink="http://www.w3.org/1999/xlink" width="200" height="200"><defs><style type="text/css"></style></defs><path d="M512.73 861.71c-47.04 0-92.68-9.22-135.67-27.4-41.5-17.55-78.77-42.68-110.77-74.68-32-32-57.12-69.27-74.68-110.77-18.18-42.99-27.4-88.63-27.4-135.67 0-47.04 9.22-92.68 27.4-135.67 17.55-41.5 42.68-78.77 74.68-110.77 32-32 69.27-57.12 110.77-74.68 42.99-18.18 88.63-27.4 135.67-27.4s92.68 9.22 135.67 27.4c41.5 17.55 78.77 42.68 110.77 74.68s57.12 69.27 74.68 110.77c18.18 42.99 27.4 88.63 27.4 135.67 0 47.04-9.22 92.68-27.4 135.67-17.55 41.5-42.68 78.77-74.68 110.77s-69.27 57.12-110.77 74.68c-42.99 18.18-88.64 27.4-135.67 27.4z m0-637.03c-159.09 0-288.51 129.43-288.51 288.51S353.65 801.7 512.73 801.7c159.09 0 288.51-129.43 288.51-288.51S671.81 224.68 512.73 224.68z" p-id="12196"></path><path d="M709.28 481.41c-12.76 0-24.59-8.2-28.61-21.02-14.03-44.67-46.06-82.57-87.89-103.98-14.75-7.55-20.59-25.62-13.04-40.37 7.55-14.75 25.62-20.58 40.37-13.04 56.05 28.68 98.98 79.5 117.8 139.41 4.96 15.81-3.83 32.65-19.63 37.61-2.99 0.95-6.02 1.39-9 1.39z" p-id="12197"></path><path d="M306.94 693.94c-23.7 0-46.24-0.97-67.31-2.92-42.86-3.98-77.98-11.94-104.37-23.65-41.91-18.6-55.07-44.25-58.74-62.5-3.15-15.66-2.15-40.37 20.42-69.19 14.17-18.09 35.56-36.27 63.58-54.04 13.99-8.87 32.53-4.72 41.4 9.27 8.87 13.99 4.73 32.53-9.27 41.4-48.77 30.93-58.82 53.26-57.31 60.75 0.93 4.62 7.79 12.17 24.25 19.48 20.13 8.94 49.73 15.42 85.58 18.75 78.65 7.31 180.28-0.38 286.18-21.65s202.62-53.42 272.35-90.54c31.78-16.92 56.58-34.33 71.7-50.34 12.37-13.1 15.78-22.71 14.85-27.33-1.5-7.46-19.3-24.12-75.94-33.84-16.33-2.8-27.3-18.31-24.5-34.64 2.8-16.33 18.31-27.3 34.64-24.5 32.58 5.59 59.24 14.1 79.22 25.31 31.83 17.85 42.26 40.22 45.4 55.85 3.67 18.25 1.43 47-30.05 80.34-19.82 20.99-49.14 41.89-87.14 62.12-74.73 39.77-177.26 74.01-288.72 96.39-83.58 16.77-165.12 25.48-236.22 25.48z" p-id="12198"></path></svg>